<?xml version="1.0" encoding="UTF-8"?>
<svg xmlns="http://www.w3.org/2000/svg" xmlns:xlink="http://www.w3.org/1999/xlink" width="309px" height="305px" viewBox="0 0 489 305" version="1.1">
<defs>
<clipPath id="clip1">
  <path d="M 93.34375 132.765625 L 395.066406 132.765625 L 395.066406 291.890625 L 93.34375 291.890625 Z M 93.34375 132.765625 "/>
</clipPath>
<clipPath id="clip2">
  <path d="M 142 59.828125 L 347 59.828125 L 347 305 L 142 305 Z M 142 59.828125 "/>
</clipPath>
</defs>
<g id="surface1">
<g clip-path="url(#clip1)" clip-rule="nonzero">
<path style=" stroke:none;fill-rule:nonzero;fill:rgb(0%,0%,0%);fill-opacity:1;" d="M 189.082031 236.21875 L 216.164062 273.757812 C 219.71875 276.605469 222.988281 278.808594 225.972656 280.371094 L 225.121094 290.609375 L 179.488281 290.609375 C 177.640625 288.902344 174.796875 285.207031 170.960938 279.519531 L 152.835938 250.722656 L 152.835938 289.972656 L 93.984375 289.972656 L 93.769531 282.503906 C 98.320312 279.660156 103.71875 277.03125 109.976562 274.613281 L 109.976562 155.800781 L 93.769531 151.75 L 93.34375 141.082031 C 106.847656 136.390625 122.414062 133.617188 140.039062 132.765625 L 140.253906 132.765625 L 152.835938 144.28125 L 152.835938 232.164062 L 173.304688 204.222656 L 161.789062 201.449219 L 161.363281 190.996094 C 174.867188 186.160156 190.578125 183.390625 208.488281 182.679688 L 219.363281 198.25 Z M 394.851562 187.15625 L 395.0625 198.460938 C 392.222656 200.878906 389.308594 202.871094 386.320312 204.433594 L 355.402344 289.117188 C 349.433594 290.964844 341.683594 291.890625 332.160156 291.890625 C 326.902344 291.890625 322.351562 291.535156 318.515625 290.824219 L 308.492188 262.882812 L 296.976562 289.117188 C 291.007812 290.964844 282.90625 291.890625 272.667969 291.890625 C 266.984375 291.890625 262.222656 291.535156 258.382812 290.824219 L 228.105469 207.207031 L 216.589844 199.101562 L 216.589844 187.15625 L 266.273438 187.15625 L 287.597656 255.628906 L 290.15625 255.628906 L 298.042969 233.871094 L 281.625 188.4375 L 324.910156 187.582031 L 343.675781 255.628906 L 346.019531 255.628906 L 345.808594 187.15625 Z M 394.851562 187.15625 "/>
</g>
<path style=" stroke:none;fill-rule:nonzero;fill:rgb(0%,0%,0%);fill-opacity:1;" d="M 149.074219 95.199219 C 204.5 50.152344 283.90625 50.152344 339.332031 95.199219 L 324.984375 95.199219 C 276.914062 59.894531 211.496094 59.894531 163.421875 95.199219 L 149.074219 95.199219 M 149.074219 329.457031 C 204.5 374.503906 283.90625 374.503906 339.332031 329.457031 L 324.984375 329.457031 C 276.914062 364.757812 211.496094 364.757812 163.421875 329.457031 L 149.074219 329.457031 "/>
<g clip-path="url(#clip2)" clip-rule="nonzero">
<path style="fill:none;stroke-width:1;stroke-linecap:butt;stroke-linejoin:miter;stroke:rgb(100%,100%,100%);stroke-opacity:1;stroke-miterlimit:4;" d="M 120.693351 28.745421 C 165.595121 -7.735163 229.92405 -7.735163 274.82582 28.745421 L 263.202436 28.745421 C 224.25951 0.154412 171.262826 0.154412 132.316736 28.745421 L 120.693351 28.745421 M 120.693351 218.455846 C 165.595121 254.93643 229.92405 254.93643 274.82582 218.455846 L 263.202436 218.455846 C 224.25951 247.043692 171.262826 247.043692 132.316736 218.455846 L 120.693351 218.455846 " transform="matrix(1.234379,0,0,1.234818,0.0929358,59.703861)"/>
</g>
</g>
</svg>
