<svg xmlns="http://www.w3.org/2000/svg" 
version="1.1" 
xmlns:xlink="http://www.w3.org/1999/xlink" 
xmlns:svgjs="http://svgjs.dev/svgjs" 
width="2000" height="1500" 
viewBox="0 0 2000 1500">
<rect width="2000" height="1500" fill="#051726"></rect>
<g transform="matrix(0.75,0,0,0.75,249.090909090909,305.6884260979714)">
<svg viewBox="0 0 396 247" data-background-color="#051726" preserveAspectRatio="xMidYMid meet" height="1247" width="2000" xmlns="http://www.w3.org/2000/svg" xmlns:xlink="http://www.w3.org/1999/xlink"><g id="tight-bounds" transform="matrix(1,0,0,1,0.2400000000000091,-0.09999999999999432)"><svg viewBox="0 0 395.52 247.2" height="247.2" width="395.52"><g><svg></svg></g><g><svg viewBox="0 0 395.52 247.2" height="247.2" width="395.52"><g transform="matrix(1,0,0,1,75.54432,59.166857045936396)"><svg viewBox="0 0 244.43135999999998 128.8662859081272" height="128.8662859081272" width="244.43135999999998"><g><svg viewBox="0 0 244.43135999999998 128.8662859081272" height="128.8662859081272" width="244.43135999999998"><g><svg viewBox="0 0 244.43135999999998 128.8662859081272" height="128.8662859081272" width="244.43135999999998"><g><svg viewBox="0 0 244.43135999999998 128.8662859081272" height="128.8662859081272" width="244.43135999999998"><g><svg viewBox="0 0 244.43135999999998 128.8662859081272" height="128.8662859081272" width="244.43135999999998"><g><svg viewBox="0 0 244.43135999999998 128.8662859081272" height="128.8662859081272" width="244.43135999999998"><g transform="matrix(1,0,0,1,0,0)"><svg width="244.43135999999998" viewBox="0.25 -36.849998474121094 70.75 37.29999923706055" height="128.8662859081272" data-palette-color="#ffffff"><path d="M22.7-12.6L29.05-3.8Q30.3-2.8 31.35-2.25L31.35-2.25 31.15 0.15 20.45 0.15Q19.8-0.45 18.45-2.45L18.45-2.45 14.2-9.2 14.2 0 0.4 0 0.35-1.75Q1.95-2.75 4.15-3.6L4.15-3.6 4.15-31.45 0.35-32.4 0.25-34.9Q5-36.55 11.2-36.85L11.2-36.85 11.25-36.85 14.2-34.15 14.2-13.55 19-20.1 16.3-20.75 16.2-23.2Q20.95-24.9 27.25-25.15L27.25-25.15 29.8-21.5 22.7-12.6ZM70.95-24.1L71-21.45Q70-20.6 68.95-20.05L68.95-20.05 61.7-0.2Q59.6 0.45 56.25 0.45L56.25 0.45Q54.4 0.45 53.05 0.2L53.05 0.2 50.7-6.35 48-0.2Q45.9 0.45 42.3 0.45L42.3 0.45Q40.3 0.45 38.95 0.2L38.95 0.2 31.85-19.4 29.15-21.3 29.15-24.1 40.8-24.1 45.8-8.05 46.4-8.05 48.25-13.15 44.4-23.8 54.55-24 58.95-8.05 59.5-8.05 59.45-24.1 70.95-24.1Z" opacity="1" transform="matrix(1,0,0,1,0,0)" fill="#ffffff" class="undefined-text-0" data-fill-palette-color="primary" id="text-0"></path></svg></g></svg></g></svg></g></svg></g><g></g></svg></g></svg></g></svg></g><g><path d="M120.694 28.745A122.216 122.216 0 0 1 274.826 28.745L263.204 28.745A110.594 110.594 0 0 0 132.316 28.745L120.694 28.745M120.694 218.455A122.216 122.216 0 0 0 274.826 218.455L263.204 218.455A110.594 110.594 0 0 1 132.316 218.455L120.694 218.455" fill="#ffffff" stroke="transparent" data-fill-palette-color="tertiary"></path></g></svg></g><defs></defs></svg><rect width="395.52" height="247.2" fill="none" stroke="none" visibility="hidden"></rect></g></svg></g></svg>