<?xml version="1.0" standalone="no"?>
<!DOCTYPE svg PUBLIC "-//W3C//DTD SVG 20010904//EN"
 "http://www.w3.org/TR/2001/REC-SVG-20010904/DTD/svg10.dtd">
<svg version="1.0" xmlns="http://www.w3.org/2000/svg"
 width="512.000000pt" height="512.000000pt" viewBox="0 0 512.000000 512.000000"
 preserveAspectRatio="xMidYMid meet">

<g transform="translate(0.000000,512.000000) scale(0.100000,-0.100000)"
fill="#000000" stroke="none">
<path d="M1 3858 c0 -814 4 -1251 10 -1230 13 44 79 108 126 121 26 8 699 11
2168 11 l2130 0 -367 367 c-202 203 -372 381 -377 396 -14 36 -14 118 0 154
37 98 167 149 264 104 26 -13 228 -206 592 -568 440 -437 554 -555 562 -583 6
-22 10 429 10 1228 l1 1262 -2560 0 -2560 0 1 -1262z"/>
<path d="M1 1263 l-1 -1263 2560 0 2560 0 -1 1263 c0 799 -4 1249 -10 1227 -8
-28 -122 -146 -562 -583 -364 -362 -566 -555 -592 -568 -115 -54 -261 26 -273
150 -10 111 -26 91 381 499 l372 372 -2130 0 c-1469 0 -2142 3 -2168 11 -47
13 -113 77 -126 121 -6 21 -10 -416 -10 -1229z"/>
</g>
</svg>
